<svg width="16" height="29" viewBox="0 0 24 29" fill="none" xmlns="http://www.w3.org/2000/svg">
<rect y="3" width="24" height="24" rx="12" fill="white"/>
<path d="M2.264 17.716V19H7.964V17.716H4.508L7.736 14.08V12.796H2.504V14.08H5.492L2.264 17.716ZM8.19866 14.704C8.22266 14.304 8.32266 13.972 8.49866 13.708C8.67466 13.444 8.89866 13.232 9.17066 13.072C9.44266 12.912 9.74666 12.8 10.0827 12.736C10.4267 12.664 10.7707 12.628 11.1147 12.628C11.4267 12.628 11.7427 12.652 12.0627 12.7C12.3827 12.74 12.6747 12.824 12.9387 12.952C13.2027 13.08 13.4187 13.26 13.5867 13.492C13.7547 13.716 13.8387 14.016 13.8387 14.392V17.62C13.8387 17.9 13.8547 18.168 13.8867 18.424C13.9187 18.68 13.9747 18.872 14.0547 19H12.3267C12.2947 18.904 12.2667 18.808 12.2427 18.712C12.2267 18.608 12.2147 18.504 12.2067 18.4C11.9347 18.68 11.6147 18.876 11.2467 18.988C10.8787 19.1 10.5027 19.156 10.1187 19.156C9.82266 19.156 9.54666 19.12 9.29066 19.048C9.03466 18.976 8.81066 18.864 8.61866 18.712C8.42666 18.56 8.27466 18.368 8.16266 18.136C8.05866 17.904 8.00666 17.628 8.00666 17.308C8.00666 16.956 8.06666 16.668 8.18666 16.444C8.31466 16.212 8.47466 16.028 8.66666 15.892C8.86666 15.756 9.09066 15.656 9.33866 15.592C9.59466 15.52 9.85066 15.464 10.1067 15.424C10.3627 15.384 10.6147 15.352 10.8627 15.328C11.1107 15.304 11.3307 15.268 11.5227 15.22C11.7147 15.172 11.8667 15.104 11.9787 15.016C12.0907 14.92 12.1427 14.784 12.1347 14.608C12.1347 14.424 12.1027 14.28 12.0387 14.176C11.9827 14.064 11.9027 13.98 11.7987 13.924C11.7027 13.86 11.5867 13.82 11.4507 13.804C11.3227 13.78 11.1827 13.768 11.0307 13.768C10.6947 13.768 10.4307 13.84 10.2387 13.984C10.0467 14.128 9.93466 14.368 9.90266 14.704H8.19866ZM12.1347 15.964C12.0627 16.028 11.9707 16.08 11.8587 16.12C11.7547 16.152 11.6387 16.18 11.5107 16.204C11.3907 16.228 11.2627 16.248 11.1267 16.264C10.9907 16.28 10.8547 16.3 10.7187 16.324C10.5907 16.348 10.4627 16.38 10.3347 16.42C10.2147 16.46 10.1067 16.516 10.0107 16.588C9.92266 16.652 9.85066 16.736 9.79466 16.84C9.73866 16.944 9.71066 17.076 9.71066 17.236C9.71066 17.388 9.73866 17.516 9.79466 17.62C9.85066 17.724 9.92666 17.808 10.0227 17.872C10.1187 17.928 10.2307 17.968 10.3587 17.992C10.4867 18.016 10.6187 18.028 10.7547 18.028C11.0907 18.028 11.3507 17.972 11.5347 17.86C11.7187 17.748 11.8547 17.616 11.9427 17.464C12.0307 17.304 12.0827 17.144 12.0987 16.984C12.1227 16.824 12.1347 16.696 12.1347 16.6V15.964ZM14.6093 10.432V19H16.3133V10.432H14.6093ZM18.567 15.904C18.567 15.656 18.591 15.412 18.639 15.172C18.687 14.932 18.767 14.72 18.879 14.536C18.999 14.352 19.155 14.204 19.347 14.092C19.539 13.972 19.779 13.912 20.067 13.912C20.355 13.912 20.595 13.972 20.787 14.092C20.987 14.204 21.143 14.352 21.255 14.536C21.375 14.72 21.459 14.932 21.507 15.172C21.555 15.412 21.579 15.656 21.579 15.904C21.579 16.152 21.555 16.396 21.507 16.636C21.459 16.868 21.375 17.08 21.255 17.272C21.143 17.456 20.987 17.604 20.787 17.716C20.595 17.828 20.355 17.884 20.067 17.884C19.779 17.884 19.539 17.828 19.347 17.716C19.155 17.604 18.999 17.456 18.879 17.272C18.767 17.08 18.687 16.868 18.639 16.636C18.591 16.396 18.567 16.152 18.567 15.904ZM16.863 15.904C16.863 16.4 16.939 16.848 17.091 17.248C17.243 17.648 17.459 17.992 17.739 18.28C18.019 18.56 18.355 18.776 18.747 18.928C19.139 19.08 19.579 19.156 20.067 19.156C20.555 19.156 20.995 19.08 21.387 18.928C21.787 18.776 22.127 18.56 22.407 18.28C22.687 17.992 22.903 17.648 23.055 17.248C23.207 16.848 23.283 16.4 23.283 15.904C23.283 15.408 23.207 14.96 23.055 14.56C22.903 14.152 22.687 13.808 22.407 13.528C22.127 13.24 21.787 13.02 21.387 12.868C20.995 12.708 20.555 12.628 20.067 12.628C19.579 12.628 19.139 12.708 18.747 12.868C18.355 13.02 18.019 13.24 17.739 13.528C17.459 13.808 17.243 14.152 17.091 14.56C16.939 14.96 16.863 15.408 16.863 15.904Z" fill="#17507F"/>
</svg>
